# xmcd CD database file
# Copyright (C) 1997 Ti Kan
#
# Track frame offsets:
#  150
#  10695
#  21368
#  32765
#  43030
#  54315
#  65790
#  76522
#  86692
#  99205
#  111638
#  123905
#  135580
#  148458
#  159233
#  172383
#
# Disc length: 2436 seconds
#
# Revision: 1
# Processed by: cddbd v1.4b41PL1 Copyright (c) Steve Scherf et al.
# Submitted via: CDWizzard Release:4.20
#
DISCID=d7098210
DTITLE=Gener Chandler - "Best Of" Series Presents
DYEAR=1900
DGENRE=
TTITLE0=Duke Of Earl
TTITLE1=Nite Owl
TTITLE2=The Big Lie
TTITLE3=Stand By Me
TTITLE4=Daddy's Home
TTITLE5=I Wake Up Crying
TTITLE6=Festival Of Love
TTITLE7=Turn On Your Love Light
TTITLE8=Baby, That's Love
TTITLE9=Rainbow
TTITLE10=Think Nothing About It
TTITLE11=A Sng Called Soul
TTITLE12=What Now?
TTITLE13=You Can't Hurt Me No More
TTITLE14=Nothing Can Stop Me
TTITLE15=(Gonna B) Good Times
EXTD=
EXTT0=
EXTT1=
EXTT2=
EXTT3=
EXTT4=
EXTT5=
EXTT6=
EXTT7=
EXTT8=
EXTT9=
EXTT10=
EXTT11=
EXTT12=
EXTT13=
EXTT14=
EXTT15=
PLAYORDER=
